# Blender v2.79 (sub 0) OBJ File: ''
# www.blender.org
mtllib actuador_lineal.mtl
o Ensamblaje5_-_Pieza1-6
v -1.656529 40.005211 -4.717615
v -2.450568 -9.994806 -4.358295
v -2.450568 40.005211 -4.358290
v -3.170149 -9.994806 -3.866545
v -3.170149 40.005211 -3.866541
v -3.793405 -9.994806 -3.257314
v -3.793405 40.005211 -3.257309
v -4.301401 -9.994806 -2.549110
v -4.301401 40.005211 -2.549105
v -4.678701 -9.994806 -1.763452
v -4.678701 40.005211 -1.763448
v -4.913842 -9.994806 -0.924214
v -4.913842 40.005211 -0.924210
v -4.999677 -9.994806 -0.056893
v -4.999677 40.005211 -0.056889
v -4.933600 -9.994806 0.812156
v -4.933600 40.005211 0.812160
v -4.717619 -9.994806 1.656528
v -4.717619 40.005211 1.656533
v -4.358294 -9.994806 2.450567
v -4.358294 40.005211 2.450572
v -3.866545 -9.994806 3.170147
v -3.866545 40.005211 3.170152
v -3.257313 -9.994806 3.793405
v -3.257313 40.005211 3.793409
v -2.549109 -9.994806 4.301401
v -2.549109 40.005211 4.301405
v -1.763451 -9.994806 4.678699
v -1.763451 40.005211 4.678705
v -0.924213 -9.994806 4.913840
v -0.924213 40.005211 4.913846
v -0.056892 -9.994806 4.999677
v -0.056892 40.005211 4.999681
v 0.812157 -9.994806 4.933599
v 0.812157 40.005211 4.933604
v 1.656529 -9.994806 4.717618
v 1.656529 40.005211 4.717623
v 2.450568 -9.994806 4.358294
v 2.450568 40.005211 4.358298
v 3.170149 -9.994806 3.866544
v 3.170149 40.005211 3.866549
v 3.793405 -9.994806 3.257312
v 3.793405 40.005211 3.257316
v 4.301401 -9.994806 2.549108
v 4.301401 40.005211 2.549112
v 4.678701 -9.994806 1.763451
v 4.678701 40.005211 1.763455
v 4.913842 -9.994806 0.924212
v 4.913842 40.005211 0.924216
v 4.999677 -9.994806 0.056892
v 4.999677 40.005211 0.056896
v 4.933600 -9.994806 -0.812158
v 4.933600 40.005211 -0.812153
v 4.717619 -9.994806 -1.656530
v 4.717619 40.005211 -1.656526
v 4.358294 -9.994806 -2.450569
v 4.358294 40.005211 -2.450565
v 3.866545 -9.994806 -3.170149
v 3.866545 40.005211 -3.170145
v 3.257313 -9.994806 -3.793406
v 3.257313 40.005211 -3.793401
v 2.549109 -9.994806 -4.301403
v 2.549109 40.005211 -4.301397
v 1.763451 -9.994806 -4.678701
v 1.763451 40.005211 -4.678697
v 0.924213 -9.994806 -4.913842
v 0.924213 40.005211 -4.913838
v 0.056892 -9.994806 -4.999679
v 0.056892 40.005211 -4.999673
v -0.812157 -9.994806 -4.933600
v -0.812157 40.005211 -4.933596
v -1.656529 -9.994806 -4.717619
v 0.000000 -9.994806 -0.000000
v 0.000000 40.005211 0.000004
vn -0.4123 0.0000 -0.9111
vn -0.5642 0.0000 -0.8256
vn -0.6990 0.0000 -0.7151
vn -0.8126 0.0000 -0.5829
vn -0.9014 0.0000 -0.4329
vn -0.9629 0.0000 -0.2698
vn -0.9951 -0.0000 -0.0985
vn -0.9971 -0.0000 0.0758
vn -0.9688 -0.0000 0.2478
vn -0.9111 -0.0000 0.4123
vn -0.8256 -0.0000 0.5642
vn -0.7151 -0.0000 0.6990
vn -0.5829 -0.0000 0.8126
vn -0.4329 -0.0000 0.9014
vn -0.2698 -0.0000 0.9629
vn -0.0985 -0.0000 0.9951
vn 0.0758 -0.0000 0.9971
vn 0.2478 -0.0000 0.9688
vn 0.4123 -0.0000 0.9111
vn 0.5642 -0.0000 0.8256
vn 0.6990 -0.0000 0.7151
vn 0.8126 -0.0000 0.5829
vn 0.9014 -0.0000 0.4329
vn 0.9629 -0.0000 0.2698
vn 0.9951 0.0000 0.0985
vn 0.9971 0.0000 -0.0758
vn 0.9688 0.0000 -0.2478
vn 0.9111 0.0000 -0.4123
vn 0.8256 0.0000 -0.5642
vn 0.7151 0.0000 -0.6990
vn 0.5829 0.0000 -0.8126
vn 0.4329 0.0000 -0.9014
vn 0.2698 0.0000 -0.9629
vn 0.0985 0.0000 -0.9951
vn -0.0758 0.0000 -0.9971
vn -0.2478 0.0000 -0.9688
vn 0.0000 -1.0000 0.0000
vn 0.0000 1.0000 0.0000
usemtl None
s 1
f 1//1 2//1 3//1
f 3//2 2//2 4//2
f 3//2 4//2 5//2
f 5//3 4//3 6//3
f 5//3 6//3 7//3
f 7//4 6//4 8//4
f 7//4 8//4 9//4
f 9//5 8//5 10//5
f 9//5 10//5 11//5
f 11//6 10//6 12//6
f 11//6 12//6 13//6
f 13//7 12//7 14//7
f 13//7 14//7 15//7
f 15//8 14//8 16//8
f 15//8 16//8 17//8
f 17//9 16//9 18//9
f 17//9 18//9 19//9
f 19//10 18//10 20//10
f 19//10 20//10 21//10
f 21//11 20//11 22//11
f 21//11 22//11 23//11
f 23//12 22//12 24//12
f 23//12 24//12 25//12
f 25//13 24//13 26//13
f 25//13 26//13 27//13
f 27//14 26//14 28//14
f 27//14 28//14 29//14
f 29//15 28//15 30//15
f 29//15 30//15 31//15
f 31//16 30//16 32//16
f 31//16 32//16 33//16
f 33//17 32//17 34//17
f 33//17 34//17 35//17
f 35//18 34//18 36//18
f 35//18 36//18 37//18
f 37//19 36//19 38//19
f 37//19 38//19 39//19
f 39//20 38//20 40//20
f 39//20 40//20 41//20
f 41//21 40//21 42//21
f 41//21 42//21 43//21
f 43//22 42//22 44//22
f 43//22 44//22 45//22
f 45//23 44//23 46//23
f 45//23 46//23 47//23
f 47//24 46//24 48//24
f 47//24 48//24 49//24
f 49//25 48//25 50//25
f 49//25 50//25 51//25
f 51//26 50//26 52//26
f 51//26 52//26 53//26
f 53//27 52//27 54//27
f 53//27 54//27 55//27
f 55//28 54//28 56//28
f 55//28 56//28 57//28
f 57//29 56//29 58//29
f 57//29 58//29 59//29
f 59//30 58//30 60//30
f 59//30 60//30 61//30
f 61//31 60//31 62//31
f 61//31 62//31 63//31
f 63//32 62//32 64//32
f 63//32 64//32 65//32
f 65//33 64//33 66//33
f 65//33 66//33 67//33
f 67//34 66//34 68//34
f 67//34 68//34 69//34
f 69//35 68//35 70//35
f 69//35 70//35 71//35
f 71//36 70//36 72//36
f 71//36 72//36 1//36
f 1//1 72//1 2//1
f 40//37 38//37 73//37
f 73//37 38//37 36//37
f 73//37 36//37 34//37
f 46//37 44//37 73//37
f 73//37 44//37 42//37
f 73//37 42//37 40//37
f 52//37 50//37 73//37
f 73//37 50//37 48//37
f 73//37 48//37 46//37
f 58//37 56//37 73//37
f 73//37 56//37 54//37
f 73//37 54//37 52//37
f 64//37 62//37 73//37
f 73//37 62//37 60//37
f 73//37 60//37 58//37
f 70//37 68//37 73//37
f 73//37 68//37 66//37
f 73//37 66//37 64//37
f 4//37 2//37 73//37
f 73//37 2//37 72//37
f 73//37 72//37 70//37
f 10//37 8//37 73//37
f 73//37 8//37 6//37
f 73//37 6//37 4//37
f 16//37 14//37 73//37
f 73//37 14//37 12//37
f 73//37 12//37 10//37
f 22//37 20//37 73//37
f 73//37 20//37 18//37
f 73//37 18//37 16//37
f 28//37 26//37 73//37
f 73//37 26//37 24//37
f 73//37 24//37 22//37
f 34//37 32//37 73//37
f 73//37 32//37 30//37
f 73//37 30//37 28//37
f 33//38 35//38 74//38
f 74//38 35//38 37//38
f 74//38 37//38 39//38
f 27//38 29//38 74//38
f 74//38 29//38 31//38
f 74//38 31//38 33//38
f 21//38 23//38 74//38
f 74//38 23//38 25//38
f 74//38 25//38 27//38
f 15//38 17//38 74//38
f 74//38 17//38 19//38
f 74//38 19//38 21//38
f 9//38 11//38 74//38
f 74//38 11//38 13//38
f 74//38 13//38 15//38
f 3//38 5//38 74//38
f 74//38 5//38 7//38
f 74//38 7//38 9//38
f 69//38 71//38 74//38
f 74//38 71//38 1//38
f 74//38 1//38 3//38
f 63//38 65//38 74//38
f 74//38 65//38 67//38
f 74//38 67//38 69//38
f 57//38 59//38 74//38
f 74//38 59//38 61//38
f 74//38 61//38 63//38
f 51//38 53//38 74//38
f 74//38 53//38 55//38
f 74//38 55//38 57//38
f 45//38 47//38 74//38
f 74//38 47//38 49//38
f 74//38 49//38 51//38
f 39//38 41//38 74//38
f 74//38 41//38 43//38
f 74//38 43//38 45//38
