# Blender v2.79 (sub 0) OBJ File: ''
# www.blender.org
mtllib articulacion1.mtl
o Ensamblaje5_-_Pieza3-3.001
v 39.392239 35.005207 -3.446824
v 38.802940 35.005207 -3.288921
v 40.000008 35.005207 -4.999998
v 37.750252 35.005207 -2.681152
v 37.318851 35.005207 -2.249754
v 7.984363 35.005207 -4.999998
v 38.250008 35.005207 -3.031086
v 36.968918 35.005207 -1.749995
v 36.711079 35.005207 -1.197065
v 7.001953 35.005207 -5.074667
v 36.711079 35.005207 1.197075
v 36.968918 35.005207 1.750006
v 7.984363 35.005207 5.000005
v 37.318851 35.005207 2.249761
v 1.710101 35.005207 -4.698460
v 0.868241 35.005207 -4.924036
v 0.781154 35.005207 -7.459207
v 38.802940 35.005207 3.288929
v 40.000008 35.005207 5.000005
v 38.250008 35.005207 3.031094
v 37.750252 35.005207 2.681159
v 39.392239 35.005207 3.446831
v 40.000008 35.005207 3.500005
v 40.868252 35.005207 4.924044
v 40.607780 35.005207 3.446831
v 41.710110 35.005207 4.698468
v 41.197079 35.005207 3.288929
v 42.500011 35.005207 4.330132
v 41.750011 35.005207 3.031094
v 43.213951 35.005207 3.830227
v 42.249767 35.005207 2.681159
v 43.830231 35.005207 3.213943
v 42.681160 35.005207 2.249761
v 44.330143 35.005207 2.500005
v 43.031101 35.005207 1.750006
v 44.698471 35.005207 1.710106
v 43.288940 35.005207 1.197075
v 44.924053 35.005207 0.868245
v 43.446842 35.005207 0.607773
v 45.000011 35.005207 0.000005
v 43.500011 35.005207 0.000005
v 44.924053 35.005207 -0.868236
v 43.446842 35.005207 -0.607764
v 44.698471 35.005207 -1.710096
v 43.288940 35.005207 -1.197065
v 44.330143 35.005207 -2.499997
v 43.031101 35.005207 -1.749995
v 43.830231 35.005207 -3.213935
v 42.681160 35.005207 -2.249754
v 43.213951 35.005207 -3.830218
v 42.249767 35.005207 -2.681152
v 42.500011 35.005207 -4.330123
v 41.750011 35.005207 -3.031086
v 41.710110 35.005207 -4.698460
v 41.197079 35.005207 -3.288921
v 40.868252 35.005207 -4.924036
v 40.607780 35.005207 -3.446824
v 40.000008 35.005207 -3.499997
v -0.473466 35.005207 -7.485039
v 0.000000 35.005207 -4.999998
v -1.714832 35.005207 -7.301322
v -0.868241 35.005207 -4.924036
v -2.908191 35.005207 -6.913205
v -1.710101 35.005207 -4.698460
v -4.020133 35.005207 -6.331549
v -2.500000 35.005207 -4.330123
v -5.019530 35.005207 -5.572638
v -3.213939 35.005207 -3.830218
v -5.878405 35.005207 -4.657719
v -3.830223 35.005207 -3.213935
v -6.572711 35.005207 -3.612407
v -4.330128 35.005207 -2.499997
v -7.083010 35.005207 -2.465963
v -4.698464 35.005207 -1.710096
v -7.395020 35.005207 -1.250482
v -4.924040 35.005207 -0.868236
v -7.500002 35.005207 0.000005
v -5.000001 35.005207 0.000005
v -7.395020 35.005207 1.250492
v -4.924040 35.005207 0.868245
v -7.083010 35.005207 2.465971
v -4.698464 35.005207 1.710106
v -6.572711 35.005207 3.612415
v -4.330128 35.005207 2.500005
v -5.878405 35.005207 4.657727
v -3.830223 35.005207 3.213943
v -5.019530 35.005207 5.572646
v -3.213939 35.005207 3.830227
v -4.020133 35.005207 6.331557
v -2.500000 35.005207 4.330132
v -2.908191 35.005207 6.913213
v -1.710101 35.005207 4.698468
v -1.714832 35.005207 7.301331
v -0.868241 35.005207 4.924044
v -0.473466 35.005207 7.485048
v 0.000000 35.005207 5.000005
v 0.781154 35.005207 7.459215
v 0.868241 35.005207 4.924044
v 2.013906 35.005207 7.224560
v 1.710101 35.005207 4.698468
v 3.190278 35.005207 6.787651
v 2.500000 35.005207 4.330132
v 4.277337 35.005207 6.160721
v 5.126900 35.005207 5.661776
v 3.213939 35.005207 3.830227
v 6.042114 35.005207 5.296968
v 3.830223 35.005207 3.213943
v 7.001953 35.005207 5.074675
v 4.330128 35.005207 2.500005
v 36.553177 35.005207 0.607773
v 2.013906 35.005207 -7.224552
v 3.190278 35.005207 -6.787643
v 2.500000 35.005207 -4.330123
v 4.277337 35.005207 -6.160712
v 3.213939 35.005207 -3.830218
v 5.126900 35.005207 -5.661767
v 3.830223 35.005207 -3.213935
v 6.042114 35.005207 -5.296958
v 4.330128 35.005207 -2.499997
v 4.698464 35.005207 -1.710096
v 4.924040 35.005207 -0.868236
v 36.553177 35.005207 -0.607764
v 5.000001 35.005207 0.000005
v 36.500008 35.005207 0.000005
v 4.924040 35.005207 0.868245
v 4.698464 35.005207 1.710106
v 40.000008 40.005211 5.000007
v 39.392239 40.005211 3.446834
v 38.802940 40.005211 3.288930
v 7.984363 40.005211 5.000007
v 1.710101 40.005211 -4.698459
v 2.500000 40.005211 -4.330122
v 36.553177 40.005211 0.607774
v 3.213939 40.005211 -3.830217
v 37.318851 40.005211 -2.249752
v 7.984363 40.005211 -4.999995
v 36.968918 40.005211 -1.749995
v 36.711079 40.005211 -1.197065
v 38.802940 40.005211 -3.288919
v 40.000008 40.005211 -4.999995
v 38.250008 40.005211 -3.031084
v 37.750252 40.005211 -2.681150
v 7.001953 40.005211 -5.074666
v 0.868241 40.005211 -4.924035
v 3.830223 40.005211 -3.213933
v 4.330128 40.005211 -2.499995
v 4.698464 40.005211 -1.710096
v 39.392239 40.005211 -3.446822
v 40.000008 40.005211 -3.499995
v 40.868252 40.005211 -4.924035
v 40.607780 40.005211 -3.446822
v 41.710110 40.005211 -4.698459
v 41.197079 40.005211 -3.288919
v 42.500011 40.005211 -4.330122
v 41.750011 40.005211 -3.031084
v 43.213951 40.005211 -3.830217
v 42.249767 40.005211 -2.681150
v 43.830231 40.005211 -3.213933
v 42.681160 40.005211 -2.249752
v 44.330143 40.005211 -2.499995
v 43.031101 40.005211 -1.749995
v 44.698471 40.005211 -1.710096
v 43.288940 40.005211 -1.197065
v 44.924053 40.005211 -0.868236
v 43.446842 40.005211 -0.607764
v 45.000011 40.005211 0.000005
v 43.500011 40.005211 0.000005
v 44.924053 40.005211 0.868247
v 43.446842 40.005211 0.607774
v 44.698471 40.005211 1.710107
v 43.288940 40.005211 1.197076
v 44.330143 40.005211 2.500006
v 43.031101 40.005211 1.750006
v 43.830231 40.005211 3.213944
v 42.681160 40.005211 2.249763
v 43.213951 40.005211 3.830228
v 42.249767 40.005211 2.681161
v 42.500011 40.005211 4.330134
v 41.750011 40.005211 3.031095
v 41.710110 40.005211 4.698470
v 41.197079 40.005211 3.288930
v 40.868252 40.005211 4.924046
v 40.607780 40.005211 3.446834
v 40.000008 40.005211 3.500006
v 38.250008 40.005211 3.031095
v 37.750252 40.005211 2.681161
v 37.318851 40.005211 2.249763
v 36.968918 40.005211 1.750006
v 36.711079 40.005211 1.197076
v 7.001953 40.005211 5.074677
v 4.924040 40.005211 -0.868236
v 5.000001 40.005211 0.000005
v 36.500008 40.005211 0.000005
v 36.553177 40.005211 -0.607764
v 6.042114 40.005211 -5.296957
v 5.126900 40.005211 -5.661767
v 4.277337 40.005211 -6.160709
v 1.710101 40.005211 4.698470
v 3.190278 40.005211 6.787653
v 2.500000 40.005211 4.330134
v 4.277337 40.005211 6.160721
v 3.213939 40.005211 3.830228
v 5.126900 40.005211 5.661778
v 3.830223 40.005211 3.213944
v 6.042114 40.005211 5.296969
v 4.330128 40.005211 2.500006
v 4.698464 40.005211 1.710107
v 4.924040 40.005211 0.868247
v 0.781154 40.005211 -7.459206
v 0.000000 40.005211 -4.999995
v -0.473466 40.005211 -7.485038
v -0.868241 40.005211 -4.924035
v -1.714832 40.005211 -7.301321
v -1.710101 40.005211 -4.698459
v -2.908191 40.005211 -6.913203
v -2.500000 40.005211 -4.330122
v -4.020133 40.005211 -6.331547
v -3.213939 40.005211 -3.830217
v -5.019530 40.005211 -5.572637
v -3.830223 40.005211 -3.213933
v -5.878405 40.005211 -4.657718
v -4.330128 40.005211 -2.499995
v -6.572711 40.005211 -3.612405
v -4.698464 40.005211 -1.710096
v -7.083010 40.005211 -2.465961
v -4.924040 40.005211 -0.868236
v -7.395020 40.005211 -1.250482
v -5.000001 40.005211 0.000005
v -7.500002 40.005211 0.000005
v -4.924040 40.005211 0.868247
v -7.395020 40.005211 1.250493
v -4.698464 40.005211 1.710107
v -7.083010 40.005211 2.465972
v -4.330128 40.005211 2.500006
v -6.572711 40.005211 3.612416
v -3.830223 40.005211 3.213944
v -5.878405 40.005211 4.657729
v -3.213939 40.005211 3.830228
v -5.019530 40.005211 5.572648
v -2.500000 40.005211 4.330134
v -4.020133 40.005211 6.331558
v -1.710101 40.005211 4.698470
v -2.908191 40.005211 6.913214
v -0.868241 40.005211 4.924046
v -1.714832 40.005211 7.301332
v 0.000000 40.005211 5.000007
v -0.473466 40.005211 7.485049
v 0.868241 40.005211 4.924046
v 0.781154 40.005211 7.459216
v 2.013906 40.005211 7.224561
v 3.190278 40.005211 -6.787642
v 2.013906 40.005211 -7.224550
v -7.500002 40.005211 0.000005
v -7.500002 35.005207 0.000005
v 0.000000 35.005207 5.000005
v 0.000000 40.005211 5.000007
v 5.000001 35.005207 0.000005
v 5.000001 40.005211 0.000005
v 0.000000 35.005207 -4.999998
v 0.000000 40.005211 -4.999995
v -5.000001 35.005207 0.000005
v -5.000001 40.005211 0.000005
v 43.500011 35.005207 0.000005
v 43.500011 40.005211 0.000005
v 36.500008 35.005207 0.000005
v 36.500008 40.005211 0.000005
v 45.000011 40.005211 0.000005
v 45.000011 35.005207 0.000005
v 45.000011 35.005207 0.000005
v 45.000011 40.005211 0.000005
vn 0.0000 -1.0000 0.0000
vn 0.0000 -1.0000 0.0001
vn 0.0000 1.0000 0.0000
vn 0.0758 -0.0000 0.9971
vn 0.2256 -0.0000 0.9742
vn 0.3703 -0.0000 0.9289
vn 0.5064 -0.0000 0.8623
vn 0.5030 -0.0000 0.8643
vn 0.4996 -0.0000 0.8663
vn 0.3482 -0.0000 0.9374
vn 0.1870 -0.0000 0.9824
vn 0.0206 -0.0000 0.9998
vn -0.1464 -0.0000 0.9892
vn -0.3093 -0.0000 0.9510
vn -0.4635 -0.0000 0.8861
vn -0.6048 -0.0000 0.7964
vn -0.7291 -0.0000 0.6844
vn -0.8330 -0.0000 0.5533
vn -0.9136 -0.0000 0.4067
vn -0.9136 0.0000 0.4066
vn -0.9686 0.0000 0.2486
vn -0.9965 0.0000 0.0837
vn -0.9965 -0.0000 -0.0837
vn -0.9686 0.0000 -0.2486
vn -0.9136 0.0000 -0.4067
vn -0.9136 0.0000 -0.4066
vn -0.8330 0.0000 -0.5533
vn -0.7291 0.0000 -0.6844
vn -0.6048 0.0000 -0.7964
vn -0.4635 0.0000 -0.8861
vn -0.3093 0.0000 -0.9510
vn -0.1464 0.0000 -0.9892
vn 0.0206 0.0000 -0.9998
vn 0.1870 0.0000 -0.9824
vn 0.3482 0.0000 -0.9374
vn 0.4996 0.0000 -0.8663
vn 0.5030 0.0000 -0.8643
vn 0.5064 0.0000 -0.8623
vn 0.3703 0.0000 -0.9289
vn 0.2256 0.0000 -0.9742
vn 0.0758 0.0000 -0.9971
vn 0.0000 0.0000 -1.0000
vn 0.0000 -0.0000 1.0000
vn -0.0872 0.0000 -0.9962
vn -0.2588 0.0000 -0.9659
vn -0.4226 0.0000 -0.9063
vn -0.5736 0.0000 -0.8192
vn -0.7071 0.0000 -0.7071
vn -0.8192 0.0000 -0.5736
vn -0.9063 0.0000 -0.4226
vn -0.9659 0.0000 -0.2588
vn -0.9962 -0.0000 -0.0872
vn -0.9962 0.0000 0.0872
vn -0.9659 0.0000 0.2588
vn -0.9063 0.0000 0.4226
vn -0.8192 -0.0000 0.5736
vn -0.7071 -0.0000 0.7071
vn -0.5736 -0.0000 0.8192
vn -0.4226 -0.0000 0.9063
vn -0.2588 -0.0000 0.9659
vn -0.0872 -0.0000 0.9962
vn 0.0872 -0.0000 0.9962
vn 0.2588 -0.0000 0.9659
vn 0.4226 -0.0000 0.9063
vn 0.5736 -0.0000 0.8192
vn 0.7071 -0.0000 0.7071
vn 0.8192 -0.0000 0.5736
vn 0.9063 -0.0000 0.4226
vn 0.9659 0.0000 0.2588
vn 0.9962 0.0000 0.0872
vn 0.9962 -0.0000 -0.0872
vn 0.9659 0.0000 -0.2588
vn 0.9063 0.0000 -0.4226
vn 0.8192 0.0000 -0.5736
vn 0.7071 0.0000 -0.7071
vn 0.5736 0.0000 -0.8192
vn 0.4226 0.0000 -0.9063
vn 0.2588 0.0000 -0.9659
vn 0.0872 0.0000 -0.9962
vn -0.8191 0.0000 -0.5736
vn -0.9962 0.0000 -0.0871
vn -0.9962 -0.0000 0.0871
vn -0.8191 0.0000 0.5736
vn 0.9962 0.0000 0.0871
vn 0.9962 0.0000 -0.0871
vn 0.8191 0.0000 -0.5736
vn 0.8191 -0.0000 0.5736
usemtl None.005
s 1
f 1//1 2//1 3//1
f 4//1 5//1 6//2
f 3//1 2//1 6//2
f 6//2 2//1 7//1
f 6//2 7//1 4//1
f 5//1 8//1 6//2
f 6//2 8//1 9//1
f 6//2 9//1 10//1
f 11//1 12//1 13//1
f 13//1 12//1 14//1
f 15//1 16//1 17//1
f 18//1 19//1 20//1
f 20//1 19//1 13//1
f 20//1 13//1 21//1
f 21//1 13//1 14//1
f 18//1 22//1 19//1
f 19//1 22//1 23//1
f 19//1 23//1 24//1
f 24//1 23//1 25//1
f 24//1 25//1 26//1
f 26//1 25//1 27//1
f 26//1 27//1 28//1
f 28//1 27//1 29//1
f 28//1 29//1 30//1
f 30//1 29//1 31//1
f 30//1 31//1 32//1
f 32//1 31//1 33//1
f 32//1 33//1 34//1
f 34//1 33//1 35//1
f 34//1 35//1 36//1
f 36//1 35//1 37//1
f 36//1 37//1 38//1
f 38//1 37//1 39//1
f 38//1 39//1 40//1
f 40//1 39//1 41//1
f 40//1 41//1 42//1
f 42//1 41//1 43//1
f 42//1 43//1 44//1
f 44//1 43//1 45//1
f 44//1 45//1 46//1
f 46//1 45//1 47//1
f 46//1 47//1 48//1
f 48//1 47//1 49//1
f 48//1 49//1 50//1
f 50//1 49//1 51//1
f 50//1 51//1 52//1
f 52//1 51//1 53//1
f 52//1 53//1 54//1
f 54//1 53//1 55//1
f 54//1 55//1 56//1
f 56//1 55//1 57//1
f 56//1 57//1 3//1
f 3//1 57//1 58//1
f 3//1 58//1 1//1
f 17//1 16//1 59//1
f 59//1 16//1 60//1
f 59//1 60//1 61//1
f 61//1 60//1 62//1
f 61//1 62//1 63//1
f 63//1 62//1 64//1
f 63//1 64//1 65//1
f 65//1 64//1 66//1
f 65//1 66//1 67//1
f 67//1 66//1 68//1
f 67//1 68//1 69//1
f 69//1 68//1 70//1
f 69//1 70//1 71//1
f 71//1 70//1 72//1
f 71//1 72//1 73//1
f 73//1 72//1 74//1
f 73//1 74//1 75//1
f 75//1 74//1 76//1
f 75//1 76//1 77//1
f 77//1 76//1 78//1
f 77//1 78//1 79//1
f 79//1 78//1 80//1
f 79//1 80//1 81//1
f 81//1 80//1 82//1
f 81//1 82//1 83//1
f 83//1 82//1 84//1
f 83//1 84//1 85//1
f 85//1 84//1 86//1
f 85//1 86//1 87//1
f 87//1 86//1 88//1
f 87//1 88//1 89//1
f 89//1 88//1 90//1
f 89//1 90//1 91//1
f 91//1 90//1 92//1
f 91//1 92//1 93//1
f 93//1 92//1 94//1
f 93//1 94//1 95//1
f 95//1 94//1 96//1
f 95//1 96//1 97//1
f 97//1 96//1 98//1
f 97//1 98//1 99//1
f 99//1 98//1 100//1
f 99//1 100//1 101//1
f 101//1 100//1 102//1
f 101//1 102//1 103//1
f 103//1 102//1 104//1
f 104//1 102//1 105//1
f 104//1 105//1 106//1
f 106//1 105//1 107//1
f 106//1 107//1 108//1
f 108//1 107//1 109//1
f 108//1 109//1 13//1
f 13//1 109//1 110//1
f 13//1 110//1 11//1
f 17//1 111//1 15//1
f 15//1 111//1 112//1
f 15//1 112//1 113//1
f 113//1 112//1 114//1
f 113//1 114//1 115//1
f 115//1 114//1 116//1
f 115//1 116//1 117//1
f 117//1 116//1 118//1
f 117//1 118//1 119//1
f 119//1 118//1 10//1
f 119//1 10//1 120//1
f 120//1 10//1 9//1
f 120//1 9//1 121//1
f 121//1 9//1 122//1
f 121//1 122//1 123//1
f 123//1 122//1 124//1
f 123//1 124//1 125//1
f 125//1 124//1 110//1
f 125//1 110//1 126//1
f 126//1 110//1 109//1
f 127//3 128//3 129//3
f 127//3 129//3 130//3
f 131//3 132//3 133//3
f 133//3 132//3 134//3
f 135//3 136//3 137//3
f 137//3 136//3 138//3
f 139//3 140//3 141//3
f 141//3 140//3 136//3
f 141//3 136//3 142//3
f 142//3 136//3 135//3
f 136//3 143//3 144//3
f 134//3 145//3 133//3
f 133//3 145//3 146//3
f 133//3 146//3 147//3
f 139//3 148//3 140//3
f 140//3 148//3 149//3
f 140//3 149//3 150//3
f 150//3 149//3 151//3
f 150//3 151//3 152//3
f 152//3 151//3 153//3
f 152//3 153//3 154//3
f 154//3 153//3 155//3
f 154//3 155//3 156//3
f 156//3 155//3 157//3
f 156//3 157//3 158//3
f 158//3 157//3 159//3
f 158//3 159//3 160//3
f 160//3 159//3 161//3
f 160//3 161//3 162//3
f 162//3 161//3 163//3
f 162//3 163//3 164//3
f 164//3 163//3 165//3
f 164//3 165//3 166//3
f 166//3 165//3 167//3
f 166//3 167//3 168//3
f 168//3 167//3 169//3
f 168//3 169//3 170//3
f 170//3 169//3 171//3
f 170//3 171//3 172//3
f 172//3 171//3 173//3
f 172//3 173//3 174//3
f 174//3 173//3 175//3
f 174//3 175//3 176//3
f 176//3 175//3 177//3
f 176//3 177//3 178//3
f 178//3 177//3 179//3
f 178//3 179//3 180//3
f 180//3 179//3 181//3
f 180//3 181//3 182//3
f 182//3 181//3 183//3
f 182//3 183//3 127//3
f 127//3 183//3 184//3
f 127//3 184//3 128//3
f 129//3 185//3 130//3
f 130//3 185//3 186//3
f 130//3 186//3 187//3
f 187//3 188//3 130//3
f 130//3 188//3 189//3
f 130//3 189//3 190//3
f 147//3 191//3 133//3
f 133//3 191//3 192//3
f 133//3 192//3 189//3
f 131//3 133//3 144//3
f 144//3 133//3 193//3
f 144//3 193//3 136//3
f 136//3 193//3 194//3
f 136//3 194//3 138//3
f 143//3 195//3 144//3
f 144//3 195//3 196//3
f 144//3 196//3 197//3
f 198//3 199//3 200//3
f 200//3 199//3 201//3
f 200//3 201//3 202//3
f 202//3 201//3 203//3
f 202//3 203//3 204//3
f 204//3 203//3 205//3
f 204//3 205//3 206//3
f 206//3 205//3 190//3
f 206//3 190//3 207//3
f 207//3 190//3 189//3
f 207//3 189//3 208//3
f 208//3 189//3 192//3
f 144//3 209//3 210//3
f 210//3 209//3 211//3
f 210//3 211//3 212//3
f 212//3 211//3 213//3
f 212//3 213//3 214//3
f 214//3 213//3 215//3
f 214//3 215//3 216//3
f 216//3 215//3 217//3
f 216//3 217//3 218//3
f 218//3 217//3 219//3
f 218//3 219//3 220//3
f 220//3 219//3 221//3
f 220//3 221//3 222//3
f 222//3 221//3 223//3
f 222//3 223//3 224//3
f 224//3 223//3 225//3
f 224//3 225//3 226//3
f 226//3 225//3 227//3
f 226//3 227//3 228//3
f 228//3 227//3 229//3
f 228//3 229//3 230//3
f 230//3 229//3 231//3
f 230//3 231//3 232//3
f 232//3 231//3 233//3
f 232//3 233//3 234//3
f 234//3 233//3 235//3
f 234//3 235//3 236//3
f 236//3 235//3 237//3
f 236//3 237//3 238//3
f 238//3 237//3 239//3
f 238//3 239//3 240//3
f 240//3 239//3 241//3
f 240//3 241//3 242//3
f 242//3 241//3 243//3
f 242//3 243//3 244//3
f 244//3 243//3 245//3
f 244//3 245//3 246//3
f 246//3 245//3 247//3
f 246//3 247//3 248//3
f 248//3 247//3 249//3
f 248//3 249//3 198//3
f 198//3 249//3 250//3
f 198//3 250//3 199//3
f 197//3 251//3 144//3
f 144//3 251//3 252//3
f 144//3 252//3 209//3
f 13//4 130//4 108//4
f 108//4 130//4 190//4
f 108//5 190//5 106//5
f 106//5 190//5 205//5
f 106//6 205//6 104//6
f 104//6 205//6 203//6
f 104//7 203//7 103//8
f 103//8 203//7 201//8
f 103//8 201//8 199//9
f 103//8 199//9 101//9
f 101//10 199//10 250//10
f 101//10 250//10 99//10
f 99//11 250//11 249//11
f 99//11 249//11 97//11
f 97//12 249//12 247//12
f 97//12 247//12 95//12
f 95//13 247//13 245//13
f 95//13 245//13 93//13
f 93//14 245//14 243//14
f 93//14 243//14 91//14
f 91//15 243//15 241//15
f 91//15 241//15 89//15
f 89//16 241//16 239//16
f 89//16 239//16 87//16
f 87//17 239//17 237//17
f 87//17 237//17 85//17
f 85//18 237//18 235//18
f 85//18 235//18 83//18
f 83//19 235//20 233//20
f 83//19 233//20 81//19
f 81//21 233//21 231//21
f 81//21 231//21 79//21
f 79//22 231//22 253//22
f 79//22 253//22 254//22
f 254//23 253//23 227//23
f 254//23 227//23 75//23
f 75//24 227//24 225//24
f 75//24 225//24 73//24
f 73//25 225//26 223//26
f 73//25 223//26 71//25
f 71//27 223//27 221//27
f 71//27 221//27 69//27
f 69//28 221//28 219//28
f 69//28 219//28 67//28
f 67//29 219//29 217//29
f 67//29 217//29 65//29
f 65//30 217//30 215//30
f 65//30 215//30 63//30
f 63//31 215//31 213//31
f 63//31 213//31 61//31
f 61//32 213//32 211//32
f 61//32 211//32 59//32
f 59//33 211//33 209//33
f 59//33 209//33 17//33
f 17//34 209//34 252//34
f 17//34 252//34 111//34
f 111//35 252//35 251//35
f 111//35 251//35 112//35
f 112//36 251//36 197//37
f 112//36 197//37 114//37
f 114//37 197//37 116//38
f 116//38 197//37 196//38
f 116//39 196//39 118//39
f 118//39 196//39 195//39
f 118//40 195//40 10//40
f 10//40 195//40 143//40
f 10//41 143//41 6//41
f 6//41 143//41 136//41
f 3//42 6//42 140//42
f 140//42 6//42 136//42
f 127//43 130//43 19//43
f 19//43 130//43 13//43
f 255//44 256//44 98//44
f 98//44 256//44 248//44
f 98//45 248//45 100//45
f 100//45 248//45 198//45
f 100//46 198//46 102//46
f 102//46 198//46 200//46
f 102//47 200//47 105//47
f 105//47 200//47 202//47
f 105//48 202//48 107//48
f 107//48 202//48 204//48
f 107//49 204//49 109//49
f 109//49 204//49 206//49
f 109//50 206//50 126//50
f 126//50 206//50 207//50
f 126//51 207//51 125//51
f 125//51 207//51 208//51
f 125//52 208//52 257//52
f 257//52 208//52 258//52
f 257//53 258//53 121//53
f 121//53 258//53 191//53
f 121//54 191//54 120//54
f 120//54 191//54 147//54
f 120//55 147//55 119//55
f 119//55 147//55 146//55
f 119//56 146//56 117//56
f 117//56 146//56 145//56
f 117//57 145//57 115//57
f 115//57 145//57 134//57
f 115//58 134//58 113//58
f 113//58 134//58 132//58
f 113//59 132//59 15//59
f 15//59 132//59 131//59
f 15//60 131//60 16//60
f 16//60 131//60 144//60
f 16//61 144//61 259//61
f 259//61 144//61 260//61
f 259//62 260//62 62//62
f 62//62 260//62 212//62
f 62//63 212//63 64//63
f 64//63 212//63 214//63
f 64//64 214//64 66//64
f 66//64 214//64 216//64
f 66//65 216//65 68//65
f 68//65 216//65 218//65
f 68//66 218//66 70//66
f 70//66 218//66 220//66
f 70//67 220//67 72//67
f 72//67 220//67 222//67
f 72//68 222//68 74//68
f 74//68 222//68 224//68
f 74//69 224//69 76//69
f 76//69 224//69 226//69
f 76//70 226//70 261//70
f 261//70 226//70 262//70
f 261//71 262//71 80//71
f 80//71 262//71 230//71
f 80//72 230//72 82//72
f 82//72 230//72 232//72
f 82//73 232//73 84//73
f 84//73 232//73 234//73
f 84//74 234//74 86//74
f 86//74 234//74 236//74
f 86//75 236//75 88//75
f 88//75 236//75 238//75
f 88//76 238//76 90//76
f 90//76 238//76 240//76
f 90//77 240//77 92//77
f 92//77 240//77 242//77
f 92//78 242//78 94//78
f 94//78 242//78 244//78
f 94//79 244//79 255//79
f 255//79 244//79 256//79
f 23//44 184//44 25//44
f 25//44 184//44 183//44
f 25//45 183//45 27//45
f 27//45 183//45 181//45
f 27//46 181//46 29//46
f 29//46 181//46 179//46
f 29//47 179//47 31//47
f 31//47 179//47 177//47
f 31//48 177//48 33//48
f 33//48 177//48 175//48
f 33//80 175//80 35//80
f 35//80 175//80 173//80
f 35//50 173//50 37//50
f 37//50 173//50 171//50
f 37//51 171//51 39//51
f 39//51 171//51 169//51
f 39//52 169//81 263//52
f 263//52 169//81 264//81
f 263//82 264//82 43//82
f 43//82 264//82 165//82
f 43//54 165//54 45//54
f 45//54 165//54 163//54
f 45//55 163//55 47//55
f 47//55 163//55 161//55
f 47//83 161//83 49//83
f 49//83 161//83 159//83
f 49//57 159//57 51//57
f 51//57 159//57 157//57
f 51//58 157//58 53//58
f 53//58 157//58 155//58
f 53//59 155//59 55//59
f 55//59 155//59 153//59
f 55//60 153//60 57//60
f 57//60 153//60 151//60
f 57//61 151//61 58//61
f 58//61 151//61 149//61
f 58//62 149//62 1//62
f 1//62 149//62 148//62
f 1//63 148//63 2//63
f 2//63 148//63 139//63
f 2//64 139//64 7//64
f 7//64 139//64 141//64
f 7//65 141//65 4//65
f 4//65 141//65 142//65
f 4//66 142//66 5//66
f 5//66 142//66 135//66
f 5//67 135//67 8//67
f 8//67 135//67 137//67
f 8//68 137//68 9//68
f 9//68 137//68 138//68
f 9//69 138//69 122//69
f 122//69 138//69 194//69
f 122//84 194//84 265//84
f 265//84 194//84 266//84
f 265//71 266//85 110//71
f 110//71 266//85 133//85
f 110//72 133//72 11//72
f 11//72 133//72 189//72
f 11//73 189//73 12//73
f 12//73 189//73 188//73
f 12//74 188//74 14//74
f 14//74 188//74 187//74
f 14//75 187//75 21//75
f 21//75 187//75 186//75
f 21//76 186//76 20//76
f 20//76 186//76 185//76
f 20//77 185//77 18//77
f 18//77 185//77 129//77
f 18//78 129//78 22//78
f 22//78 129//78 128//78
f 22//79 128//79 23//79
f 23//79 128//79 184//79
f 3//79 140//79 150//79
f 3//79 150//79 56//79
f 56//78 150//78 152//78
f 56//78 152//78 54//78
f 54//77 152//77 154//77
f 54//77 154//77 52//77
f 52//76 154//76 156//76
f 52//76 156//76 50//76
f 50//75 156//75 158//75
f 50//75 158//75 48//75
f 48//86 158//86 160//86
f 48//86 160//86 46//86
f 46//73 160//73 162//73
f 46//73 162//73 44//73
f 44//72 162//72 164//72
f 44//72 164//72 42//72
f 42//71 164//71 267//71
f 42//71 267//71 268//71
f 269//70 270//70 168//70
f 269//70 168//70 38//70
f 38//69 168//69 170//69
f 38//69 170//69 36//69
f 36//68 170//68 172//68
f 36//68 172//68 34//68
f 34//87 172//87 174//87
f 34//87 174//87 32//87
f 32//66 174//66 176//66
f 32//66 176//66 30//66
f 30//65 176//65 178//65
f 30//65 178//65 28//65
f 28//64 178//64 180//64
f 28//64 180//64 26//64
f 26//63 180//63 182//63
f 26//63 182//63 24//63
f 24//62 182//62 127//62
f 24//62 127//62 19//62
